<svg width="24" height="24" viewBox="0 0 24 24" fill="none" xmlns="http://www.w3.org/2000/svg">
<path d="M9.5 8.5L11 10L8 13L11 16L9.5 17.5L5 13L9.5 8.5ZM14.5 17.5L13 16L16 13L13 10L14.5 8.5L19 13L14.5 17.5ZM21 2H3C2.46957 2 1.96086 2.21071 1.58579 2.58579C1.21071 2.96086 1 3.46957 1 4V20C1 20.5304 1.21071 21.0391 1.58579 21.4142C1.96086 21.7893 2.46957 22 3 22H21C21.5304 22 22.0391 21.7893 22.4142 21.4142C22.7893 21.0391 23 20.5304 23 20V4C23 3.46957 22.7893 2.96086 22.4142 2.58579C22.0391 2.21071 21.5304 2 21 2ZM21 20H3V6H21V20Z" fill="#FDEBDD"/>
</svg>
